<mxfile host="app.diagrams.net" agent="Mozilla/5.0 (X11; Linux x86_64; rv:134.0) Gecko/20100101 Firefox/134.0" border="50" scale="3" compressed="false" locked="false" version="26.0.3">
  <diagram name="Blank" id="YmL12bMKpDGza6XwsDPr">
    <mxGraphModel dx="2634" dy="318" grid="0" gridSize="10" guides="1" tooltips="1" connect="1" arrows="1" fold="1" page="0" pageScale="1" pageWidth="827" pageHeight="1169" background="none" math="1" shadow="0">
      <root>
        <mxCell id="X5NqExCQtvZxIxQ7pmgY-0" />
        <mxCell id="1" parent="X5NqExCQtvZxIxQ7pmgY-0" />
        <mxCell id="twCRmPSffdXshnpnkWWS-17" style="edgeStyle=orthogonalEdgeStyle;rounded=0;orthogonalLoop=1;jettySize=auto;html=1;entryX=1.027;entryY=0.429;entryDx=0;entryDy=0;entryPerimeter=0;" parent="1" target="twCRmPSffdXshnpnkWWS-27" edge="1">
          <mxGeometry relative="1" as="geometry">
            <mxPoint x="-293" y="793" as="sourcePoint" />
            <mxPoint x="-132" y="931" as="targetPoint" />
            <Array as="points">
              <mxPoint x="-253" y="793" />
              <mxPoint x="-253" y="883" />
            </Array>
          </mxGeometry>
        </mxCell>
        <mxCell id="twCRmPSffdXshnpnkWWS-18" value="Generate&amp;nbsp;&lt;div&gt;HLS&amp;nbsp;&lt;/div&gt;&lt;div&gt;Files&lt;/div&gt;" style="edgeLabel;html=1;align=center;verticalAlign=middle;resizable=0;points=[];" parent="twCRmPSffdXshnpnkWWS-17" vertex="1" connectable="0">
          <mxGeometry x="-0.2906" y="1" relative="1" as="geometry">
            <mxPoint x="25" y="20" as="offset" />
          </mxGeometry>
        </mxCell>
        <mxCell id="twCRmPSffdXshnpnkWWS-15" value="FFMpeg" style="verticalLabelPosition=bottom;sketch=0;aspect=fixed;html=1;verticalAlign=top;strokeColor=none;align=center;outlineConnect=0;shape=mxgraph.citrix.process;" parent="1" vertex="1">
          <mxGeometry x="-347" y="763" width="52" height="62" as="geometry" />
        </mxCell>
        <mxCell id="twCRmPSffdXshnpnkWWS-13" style="edgeStyle=orthogonalEdgeStyle;rounded=0;orthogonalLoop=1;jettySize=auto;html=1;entryX=-0.019;entryY=0.506;entryDx=0;entryDy=0;entryPerimeter=0;" parent="1" source="twCRmPSffdXshnpnkWWS-12" target="twCRmPSffdXshnpnkWWS-23" edge="1">
          <mxGeometry relative="1" as="geometry">
            <mxPoint x="-466" y="794" as="targetPoint" />
          </mxGeometry>
        </mxCell>
        <mxCell id="twCRmPSffdXshnpnkWWS-14" value="Ingestion - RTMP" style="edgeLabel;html=1;align=center;verticalAlign=middle;resizable=0;points=[];" parent="twCRmPSffdXshnpnkWWS-13" vertex="1" connectable="0">
          <mxGeometry x="-0.2089" y="-3" relative="1" as="geometry">
            <mxPoint x="23" y="-13" as="offset" />
          </mxGeometry>
        </mxCell>
        <mxCell id="twCRmPSffdXshnpnkWWS-12" value="OBS" style="html=1;verticalLabelPosition=bottom;align=center;labelBackgroundColor=#ffffff;verticalAlign=top;strokeWidth=2;strokeColor=#0080F0;shadow=0;dashed=0;shape=mxgraph.ios7.icons.video_conversation;" parent="1" vertex="1">
          <mxGeometry x="-828" y="780" width="53" height="28" as="geometry" />
        </mxCell>
        <mxCell id="twCRmPSffdXshnpnkWWS-19" value="IPFS Node" style="aspect=fixed;sketch=0;html=1;dashed=0;whitespace=wrap;verticalLabelPosition=bottom;verticalAlign=top;fillColor=#2875E2;strokeColor=#ffffff;points=[[0.005,0.63,0],[0.1,0.2,0],[0.9,0.2,0],[0.5,0,0],[0.995,0.63,0],[0.72,0.99,0],[0.5,1,0],[0.28,0.99,0]];shape=mxgraph.kubernetes.icon2;prIcon=node" parent="1" vertex="1">
          <mxGeometry x="-548" y="938" width="50" height="48" as="geometry" />
        </mxCell>
        <mxCell id="twCRmPSffdXshnpnkWWS-84" style="edgeStyle=orthogonalEdgeStyle;rounded=0;orthogonalLoop=1;jettySize=auto;html=1;entryX=0.5;entryY=1;entryDx=0;entryDy=0;entryPerimeter=0;" parent="1" source="twCRmPSffdXshnpnkWWS-21" target="twCRmPSffdXshnpnkWWS-75" edge="1">
          <mxGeometry relative="1" as="geometry">
            <mxPoint x="-122.83333333333303" y="1816.0000508626304" as="targetPoint" />
            <Array as="points">
              <mxPoint x="-123" y="874" />
              <mxPoint x="-123" y="1806" />
              <mxPoint x="-773" y="1806" />
            </Array>
          </mxGeometry>
        </mxCell>
        <mxCell id="twCRmPSffdXshnpnkWWS-88" value="Register for discovery" style="edgeLabel;html=1;align=center;verticalAlign=middle;resizable=0;points=[];" parent="twCRmPSffdXshnpnkWWS-84" vertex="1" connectable="0">
          <mxGeometry x="0.4946" y="1" relative="1" as="geometry">
            <mxPoint x="34" y="-14" as="offset" />
          </mxGeometry>
        </mxCell>
        <mxCell id="twCRmPSffdXshnpnkWWS-21" value="Transcode Service" style="shape=umlFrame;whiteSpace=wrap;html=1;pointerEvents=0;" parent="1" vertex="1">
          <mxGeometry x="-594" y="734" width="420" height="279" as="geometry" />
        </mxCell>
        <mxCell id="twCRmPSffdXshnpnkWWS-24" style="edgeStyle=orthogonalEdgeStyle;rounded=0;orthogonalLoop=1;jettySize=auto;html=1;" parent="1" source="twCRmPSffdXshnpnkWWS-23" target="twCRmPSffdXshnpnkWWS-15" edge="1">
          <mxGeometry relative="1" as="geometry" />
        </mxCell>
        <mxCell id="twCRmPSffdXshnpnkWWS-34" value="Pipe stream data" style="edgeLabel;html=1;align=center;verticalAlign=middle;resizable=0;points=[];" parent="twCRmPSffdXshnpnkWWS-24" vertex="1" connectable="0">
          <mxGeometry x="-0.3406" y="3" relative="1" as="geometry">
            <mxPoint x="20" y="-8" as="offset" />
          </mxGeometry>
        </mxCell>
        <mxCell id="twCRmPSffdXshnpnkWWS-23" value="RTMP Server" style="sketch=0;html=1;aspect=fixed;strokeColor=none;shadow=0;fillColor=#3B8DF1;verticalAlign=top;labelPosition=center;verticalLabelPosition=bottom;shape=mxgraph.gcp2.process" parent="1" vertex="1">
          <mxGeometry x="-511" y="771.5" width="37.8" height="45" as="geometry" />
        </mxCell>
        <mxCell id="twCRmPSffdXshnpnkWWS-26" value="File Watcher" style="sketch=0;html=1;aspect=fixed;strokeColor=none;shadow=0;fillColor=#3B8DF1;verticalAlign=top;labelPosition=center;verticalLabelPosition=bottom;shape=mxgraph.gcp2.process" parent="1" vertex="1">
          <mxGeometry x="-437.5" y="859" width="37.8" height="45" as="geometry" />
        </mxCell>
        <mxCell id="twCRmPSffdXshnpnkWWS-27" value="Local storage" style="html=1;verticalLabelPosition=bottom;align=center;labelBackgroundColor=#ffffff;verticalAlign=top;strokeWidth=2;strokeColor=#0080F0;shadow=0;dashed=0;shape=mxgraph.ios7.icons.storage;" parent="1" vertex="1">
          <mxGeometry x="-335.5" y="878.5" width="30" height="10.5" as="geometry" />
        </mxCell>
        <mxCell id="twCRmPSffdXshnpnkWWS-28" style="edgeStyle=orthogonalEdgeStyle;rounded=0;orthogonalLoop=1;jettySize=auto;html=1;entryX=-0.048;entryY=0.333;entryDx=0;entryDy=0;entryPerimeter=0;" parent="1" source="twCRmPSffdXshnpnkWWS-26" target="twCRmPSffdXshnpnkWWS-27" edge="1">
          <mxGeometry relative="1" as="geometry" />
        </mxCell>
        <mxCell id="twCRmPSffdXshnpnkWWS-30" value="Watch" style="edgeLabel;html=1;align=center;verticalAlign=middle;resizable=0;points=[];" parent="twCRmPSffdXshnpnkWWS-28" vertex="1" connectable="0">
          <mxGeometry x="-0.3525" y="-1" relative="1" as="geometry">
            <mxPoint x="6" y="-11" as="offset" />
          </mxGeometry>
        </mxCell>
        <mxCell id="twCRmPSffdXshnpnkWWS-32" style="edgeStyle=orthogonalEdgeStyle;rounded=0;orthogonalLoop=1;jettySize=auto;html=1;entryX=0.5;entryY=0;entryDx=0;entryDy=0;entryPerimeter=0;" parent="1" source="twCRmPSffdXshnpnkWWS-26" target="twCRmPSffdXshnpnkWWS-19" edge="1">
          <mxGeometry relative="1" as="geometry" />
        </mxCell>
        <mxCell id="twCRmPSffdXshnpnkWWS-33" value="Upload HLS segments" style="edgeLabel;html=1;align=center;verticalAlign=middle;resizable=0;points=[];" parent="twCRmPSffdXshnpnkWWS-32" vertex="1" connectable="0">
          <mxGeometry x="0.1065" relative="1" as="geometry">
            <mxPoint x="8" y="-14" as="offset" />
          </mxGeometry>
        </mxCell>
        <mxCell id="twCRmPSffdXshnpnkWWS-35" value="&lt;span style=&quot;color: rgb(0, 0, 0); font-family: Helvetica; font-size: 12px; font-style: normal; font-variant-ligatures: normal; font-variant-caps: normal; font-weight: 400; letter-spacing: normal; text-align: center; text-indent: 0px; text-transform: none; word-spacing: 0px; -webkit-text-stroke-width: 0px; white-space: nowrap; background-color: rgb(255, 255, 255); text-decoration-thickness: initial; text-decoration-style: initial; text-decoration-color: initial; display: inline !important; float: none;&quot;&gt;IPFS Bootstrap Node&lt;/span&gt;" style="aspect=fixed;sketch=0;html=1;dashed=0;whitespace=wrap;verticalLabelPosition=bottom;verticalAlign=top;fillColor=#2875E2;strokeColor=#ffffff;points=[[0.005,0.63,0],[0.1,0.2,0],[0.9,0.2,0],[0.5,0,0],[0.995,0.63,0],[0.72,0.99,0],[0.5,1,0],[0.28,0.99,0]];shape=mxgraph.kubernetes.icon2;prIcon=node" parent="1" vertex="1">
          <mxGeometry x="-277" y="1193" width="50" height="48" as="geometry" />
        </mxCell>
        <mxCell id="twCRmPSffdXshnpnkWWS-36" value="Private IPFS Network" style="shape=umlFrame;whiteSpace=wrap;html=1;pointerEvents=0;width=74;height=42;" parent="1" vertex="1">
          <mxGeometry x="-860" y="1064" width="682" height="329" as="geometry" />
        </mxCell>
        <mxCell id="twCRmPSffdXshnpnkWWS-50" value="IPFS Node 1" style="aspect=fixed;sketch=0;html=1;dashed=0;whitespace=wrap;verticalLabelPosition=bottom;verticalAlign=top;fillColor=#2875E2;strokeColor=#ffffff;points=[[0.005,0.63,0],[0.1,0.2,0],[0.9,0.2,0],[0.5,0,0],[0.995,0.63,0],[0.72,0.99,0],[0.5,1,0],[0.28,0.99,0]];shape=mxgraph.kubernetes.icon2;prIcon=node" parent="1" vertex="1">
          <mxGeometry x="-548" y="1105" width="50" height="48" as="geometry" />
        </mxCell>
        <mxCell id="twCRmPSffdXshnpnkWWS-51" value="IPFS Node 2" style="aspect=fixed;sketch=0;html=1;dashed=0;whitespace=wrap;verticalLabelPosition=bottom;verticalAlign=top;fillColor=#2875E2;strokeColor=#ffffff;points=[[0.005,0.63,0],[0.1,0.2,0],[0.9,0.2,0],[0.5,0,0],[0.995,0.63,0],[0.72,0.99,0],[0.5,1,0],[0.28,0.99,0]];shape=mxgraph.kubernetes.icon2;prIcon=node" parent="1" vertex="1">
          <mxGeometry x="-548" y="1193" width="50" height="48" as="geometry" />
        </mxCell>
        <mxCell id="twCRmPSffdXshnpnkWWS-52" value="IPFS Node N" style="aspect=fixed;sketch=0;html=1;dashed=0;whitespace=wrap;verticalLabelPosition=bottom;verticalAlign=top;fillColor=#2875E2;strokeColor=#ffffff;points=[[0.005,0.63,0],[0.1,0.2,0],[0.9,0.2,0],[0.5,0,0],[0.995,0.63,0],[0.72,0.99,0],[0.5,1,0],[0.28,0.99,0]];shape=mxgraph.kubernetes.icon2;prIcon=node" parent="1" vertex="1">
          <mxGeometry x="-551" y="1283" width="50" height="48" as="geometry" />
        </mxCell>
        <mxCell id="twCRmPSffdXshnpnkWWS-65" value="Client" style="outlineConnect=0;dashed=0;verticalLabelPosition=bottom;verticalAlign=top;align=center;html=1;shape=mxgraph.aws3.management_console;fillColor=#D2D3D3;gradientColor=none;" parent="1" vertex="1">
          <mxGeometry x="-1079" y="1273" width="99" height="85" as="geometry" />
        </mxCell>
        <mxCell id="twCRmPSffdXshnpnkWWS-66" value="Media Player" style="shape=image;html=1;verticalAlign=top;verticalLabelPosition=bottom;labelBackgroundColor=#ffffff;imageAspect=0;aspect=fixed;image=https://cdn4.iconfinder.com/data/icons/essentials-72/24/005_-_Video-128.png" parent="1" vertex="1">
          <mxGeometry x="-1106" y="1250" width="53" height="53" as="geometry" />
        </mxCell>
        <mxCell id="twCRmPSffdXshnpnkWWS-67" style="edgeStyle=orthogonalEdgeStyle;rounded=0;orthogonalLoop=1;jettySize=auto;html=1;" parent="1" target="twCRmPSffdXshnpnkWWS-74" edge="1">
          <mxGeometry relative="1" as="geometry">
            <mxPoint x="-746" y="1546" as="targetPoint" />
            <Array as="points">
              <mxPoint x="-1033" y="1496" />
            </Array>
            <mxPoint x="-1033" y="1393" as="sourcePoint" />
          </mxGeometry>
        </mxCell>
        <mxCell id="twCRmPSffdXshnpnkWWS-68" value="Authentication Database" style="sketch=0;outlineConnect=0;fontColor=#232F3E;gradientColor=none;fillColor=#C925D1;strokeColor=none;dashed=0;verticalLabelPosition=bottom;verticalAlign=top;align=center;html=1;fontSize=12;fontStyle=0;aspect=fixed;pointerEvents=1;shape=mxgraph.aws4.rds_postgresql_instance;" parent="1" vertex="1">
          <mxGeometry x="-312.5" y="1467" width="57" height="57" as="geometry" />
        </mxCell>
        <mxCell id="twCRmPSffdXshnpnkWWS-90" style="edgeStyle=orthogonalEdgeStyle;rounded=0;orthogonalLoop=1;jettySize=auto;html=1;" parent="1" source="twCRmPSffdXshnpnkWWS-69" target="twCRmPSffdXshnpnkWWS-68" edge="1">
          <mxGeometry relative="1" as="geometry" />
        </mxCell>
        <mxCell id="twCRmPSffdXshnpnkWWS-69" value="Authentication Service" style="image;aspect=fixed;perimeter=ellipsePerimeter;html=1;align=center;shadow=0;dashed=0;spacingTop=3;image=img/lib/active_directory/generic_server.svg;" parent="1" vertex="1">
          <mxGeometry x="-516.5" y="1470.5" width="28.000000000000004" height="50" as="geometry" />
        </mxCell>
        <mxCell id="twCRmPSffdXshnpnkWWS-70" value="User Database" style="sketch=0;outlineConnect=0;fontColor=#232F3E;gradientColor=none;fillColor=#C925D1;strokeColor=none;dashed=0;verticalLabelPosition=bottom;verticalAlign=top;align=center;html=1;fontSize=12;fontStyle=0;aspect=fixed;pointerEvents=1;shape=mxgraph.aws4.rds_postgresql_instance;" parent="1" vertex="1">
          <mxGeometry x="-312.5" y="1656.58" width="57" height="57" as="geometry" />
        </mxCell>
        <mxCell id="twCRmPSffdXshnpnkWWS-91" style="edgeStyle=orthogonalEdgeStyle;rounded=0;orthogonalLoop=1;jettySize=auto;html=1;" parent="1" source="twCRmPSffdXshnpnkWWS-71" target="twCRmPSffdXshnpnkWWS-70" edge="1">
          <mxGeometry relative="1" as="geometry" />
        </mxCell>
        <mxCell id="twCRmPSffdXshnpnkWWS-71" value="User Service" style="image;aspect=fixed;perimeter=ellipsePerimeter;html=1;align=center;shadow=0;dashed=0;spacingTop=3;image=img/lib/active_directory/generic_server.svg;" parent="1" vertex="1">
          <mxGeometry x="-516.5" y="1660.08" width="28.000000000000004" height="50" as="geometry" />
        </mxCell>
        <mxCell id="twCRmPSffdXshnpnkWWS-74" value="Kong API Gateway" style="outlineConnect=0;dashed=0;verticalLabelPosition=bottom;verticalAlign=top;align=center;html=1;shape=mxgraph.aws3.api_gateway;fillColor=#D9A741;gradientColor=none;" parent="1" vertex="1">
          <mxGeometry x="-802.25" y="1462.5" width="59" height="66" as="geometry" />
        </mxCell>
        <mxCell id="twCRmPSffdXshnpnkWWS-75" value="Service Discovery (consul)" style="sketch=0;points=[[0,0,0],[0.25,0,0],[0.5,0,0],[0.75,0,0],[1,0,0],[0,1,0],[0.25,1,0],[0.5,1,0],[0.75,1,0],[1,1,0],[0,0.25,0],[0,0.5,0],[0,0.75,0],[1,0.25,0],[1,0.5,0],[1,0.75,0]];outlineConnect=0;fontColor=#232F3E;fillColor=#01A88D;strokeColor=#ffffff;dashed=0;verticalLabelPosition=bottom;verticalAlign=top;align=center;html=1;fontSize=12;fontStyle=0;aspect=fixed;shape=mxgraph.aws4.resourceIcon;resIcon=mxgraph.aws4.application_discovery_service;" parent="1" vertex="1">
          <mxGeometry x="-801.25" y="1656.58" width="57" height="57" as="geometry" />
        </mxCell>
        <mxCell id="twCRmPSffdXshnpnkWWS-76" style="edgeStyle=orthogonalEdgeStyle;rounded=0;orthogonalLoop=1;jettySize=auto;html=1;entryX=0.5;entryY=0;entryDx=0;entryDy=0;entryPerimeter=0;" parent="1" source="twCRmPSffdXshnpnkWWS-74" target="twCRmPSffdXshnpnkWWS-75" edge="1">
          <mxGeometry relative="1" as="geometry" />
        </mxCell>
        <mxCell id="twCRmPSffdXshnpnkWWS-77" value="DNS Query" style="edgeLabel;html=1;align=center;verticalAlign=middle;resizable=0;points=[];" parent="twCRmPSffdXshnpnkWWS-76" vertex="1" connectable="0">
          <mxGeometry x="0.1861" y="1" relative="1" as="geometry">
            <mxPoint x="31" y="-7" as="offset" />
          </mxGeometry>
        </mxCell>
        <mxCell id="twCRmPSffdXshnpnkWWS-80" value="Authentication Service" style="shape=umlFrame;whiteSpace=wrap;html=1;pointerEvents=0;width=84;height=33;" parent="1" vertex="1">
          <mxGeometry x="-596" y="1446" width="420" height="122" as="geometry" />
        </mxCell>
        <mxCell id="twCRmPSffdXshnpnkWWS-81" style="edgeStyle=orthogonalEdgeStyle;rounded=0;orthogonalLoop=1;jettySize=auto;html=1;entryX=0;entryY=0.406;entryDx=0;entryDy=0;entryPerimeter=0;" parent="1" source="twCRmPSffdXshnpnkWWS-74" target="twCRmPSffdXshnpnkWWS-80" edge="1">
          <mxGeometry relative="1" as="geometry" />
        </mxCell>
        <mxCell id="twCRmPSffdXshnpnkWWS-82" value="JWT Authentication" style="edgeLabel;html=1;align=center;verticalAlign=middle;resizable=0;points=[];" parent="twCRmPSffdXshnpnkWWS-81" vertex="1" connectable="0">
          <mxGeometry x="0.1961" y="-2" relative="1" as="geometry">
            <mxPoint x="-13" y="-14" as="offset" />
          </mxGeometry>
        </mxCell>
        <mxCell id="twCRmPSffdXshnpnkWWS-83" value="User Service" style="shape=umlFrame;whiteSpace=wrap;html=1;pointerEvents=0;" parent="1" vertex="1">
          <mxGeometry x="-596" y="1634" width="420" height="122" as="geometry" />
        </mxCell>
        <mxCell id="twCRmPSffdXshnpnkWWS-86" value="" style="endArrow=none;html=1;rounded=0;" parent="1" edge="1">
          <mxGeometry width="50" height="50" relative="1" as="geometry">
            <mxPoint x="-122" y="1507" as="sourcePoint" />
            <mxPoint x="-176" y="1506.58" as="targetPoint" />
          </mxGeometry>
        </mxCell>
        <mxCell id="twCRmPSffdXshnpnkWWS-87" value="" style="endArrow=none;html=1;rounded=0;" parent="1" edge="1">
          <mxGeometry width="50" height="50" relative="1" as="geometry">
            <mxPoint x="-122" y="1698.42" as="sourcePoint" />
            <mxPoint x="-176" y="1698" as="targetPoint" />
          </mxGeometry>
        </mxCell>
        <mxCell id="twCRmPSffdXshnpnkWWS-89" value="NGINX - 1" style="image;aspect=fixed;perimeter=ellipsePerimeter;html=1;align=center;shadow=0;dashed=0;spacingTop=3;image=img/lib/active_directory/web_server.svg;" parent="1" vertex="1">
          <mxGeometry x="-688" y="1103" width="40" height="50" as="geometry" />
        </mxCell>
        <mxCell id="twCRmPSffdXshnpnkWWS-93" value="NGINX - 2" style="image;aspect=fixed;perimeter=ellipsePerimeter;html=1;align=center;shadow=0;dashed=0;spacingTop=3;image=img/lib/active_directory/web_server.svg;" parent="1" vertex="1">
          <mxGeometry x="-688" y="1191" width="40" height="50" as="geometry" />
        </mxCell>
        <mxCell id="twCRmPSffdXshnpnkWWS-94" value="NGINX - N" style="image;aspect=fixed;perimeter=ellipsePerimeter;html=1;align=center;shadow=0;dashed=0;spacingTop=3;image=img/lib/active_directory/web_server.svg;" parent="1" vertex="1">
          <mxGeometry x="-690" y="1281" width="40" height="50" as="geometry" />
        </mxCell>
        <mxCell id="twCRmPSffdXshnpnkWWS-95" value="NGINX Instances" style="shape=umlFrame;whiteSpace=wrap;html=1;pointerEvents=0;width=68;height=36;" parent="1" vertex="1">
          <mxGeometry x="-763" y="1089" width="167" height="279" as="geometry" />
        </mxCell>
        <mxCell id="cwZwF8RBg2SM_kWd7lBv-5" style="edgeStyle=orthogonalEdgeStyle;rounded=0;orthogonalLoop=1;jettySize=auto;html=1;entryX=-0.006;entryY=0.494;entryDx=0;entryDy=0;entryPerimeter=0;" edge="1" parent="1" source="twCRmPSffdXshnpnkWWS-51" target="twCRmPSffdXshnpnkWWS-35">
          <mxGeometry relative="1" as="geometry" />
        </mxCell>
        <mxCell id="cwZwF8RBg2SM_kWd7lBv-7" style="edgeStyle=orthogonalEdgeStyle;rounded=0;orthogonalLoop=1;jettySize=auto;html=1;entryX=-0.006;entryY=0.509;entryDx=0;entryDy=0;entryPerimeter=0;" edge="1" parent="1" source="twCRmPSffdXshnpnkWWS-52" target="twCRmPSffdXshnpnkWWS-35">
          <mxGeometry relative="1" as="geometry" />
        </mxCell>
        <mxCell id="cwZwF8RBg2SM_kWd7lBv-8" style="edgeStyle=orthogonalEdgeStyle;rounded=0;orthogonalLoop=1;jettySize=auto;html=1;entryX=-0.006;entryY=0.494;entryDx=0;entryDy=0;entryPerimeter=0;" edge="1" parent="1" source="twCRmPSffdXshnpnkWWS-50" target="twCRmPSffdXshnpnkWWS-35">
          <mxGeometry relative="1" as="geometry">
            <Array as="points">
              <mxPoint x="-389" y="1129" />
              <mxPoint x="-389" y="1217" />
            </Array>
          </mxGeometry>
        </mxCell>
        <mxCell id="cwZwF8RBg2SM_kWd7lBv-9" value="p2p connections" style="text;html=1;align=center;verticalAlign=middle;resizable=0;points=[];autosize=1;strokeColor=none;fillColor=none;" vertex="1" parent="1">
          <mxGeometry x="-393" y="1191" width="105" height="26" as="geometry" />
        </mxCell>
        <mxCell id="cwZwF8RBg2SM_kWd7lBv-10" style="edgeStyle=orthogonalEdgeStyle;rounded=0;orthogonalLoop=1;jettySize=auto;html=1;entryX=0.5;entryY=0;entryDx=0;entryDy=0;entryPerimeter=0;" edge="1" parent="1" source="twCRmPSffdXshnpnkWWS-19" target="twCRmPSffdXshnpnkWWS-35">
          <mxGeometry relative="1" as="geometry" />
        </mxCell>
        <mxCell id="cwZwF8RBg2SM_kWd7lBv-11" value="P2P connection" style="edgeLabel;html=1;align=center;verticalAlign=middle;resizable=0;points=[];" vertex="1" connectable="0" parent="cwZwF8RBg2SM_kWd7lBv-10">
          <mxGeometry x="0.3362" y="2" relative="1" as="geometry">
            <mxPoint as="offset" />
          </mxGeometry>
        </mxCell>
        <mxCell id="cwZwF8RBg2SM_kWd7lBv-12" style="edgeStyle=orthogonalEdgeStyle;rounded=0;orthogonalLoop=1;jettySize=auto;html=1;entryX=0.06;entryY=0.476;entryDx=0;entryDy=0;entryPerimeter=0;" edge="1" parent="1" source="twCRmPSffdXshnpnkWWS-89" target="twCRmPSffdXshnpnkWWS-50">
          <mxGeometry relative="1" as="geometry" />
        </mxCell>
        <mxCell id="cwZwF8RBg2SM_kWd7lBv-21" value="http requests" style="edgeLabel;html=1;align=center;verticalAlign=middle;resizable=0;points=[];" vertex="1" connectable="0" parent="cwZwF8RBg2SM_kWd7lBv-12">
          <mxGeometry x="0.2345" y="-1" relative="1" as="geometry">
            <mxPoint x="-15" y="-10" as="offset" />
          </mxGeometry>
        </mxCell>
        <mxCell id="cwZwF8RBg2SM_kWd7lBv-14" style="edgeStyle=orthogonalEdgeStyle;rounded=0;orthogonalLoop=1;jettySize=auto;html=1;entryX=0.021;entryY=0.48;entryDx=0;entryDy=0;entryPerimeter=0;" edge="1" parent="1" source="twCRmPSffdXshnpnkWWS-93" target="twCRmPSffdXshnpnkWWS-51">
          <mxGeometry relative="1" as="geometry" />
        </mxCell>
        <mxCell id="cwZwF8RBg2SM_kWd7lBv-15" style="edgeStyle=orthogonalEdgeStyle;rounded=0;orthogonalLoop=1;jettySize=auto;html=1;entryX=-0.001;entryY=0.473;entryDx=0;entryDy=0;entryPerimeter=0;" edge="1" parent="1" source="twCRmPSffdXshnpnkWWS-94" target="twCRmPSffdXshnpnkWWS-52">
          <mxGeometry relative="1" as="geometry" />
        </mxCell>
        <mxCell id="cwZwF8RBg2SM_kWd7lBv-18" style="edgeStyle=orthogonalEdgeStyle;rounded=0;orthogonalLoop=1;jettySize=auto;html=1;entryX=0.006;entryY=0.484;entryDx=0;entryDy=0;entryPerimeter=0;" edge="1" parent="1" source="twCRmPSffdXshnpnkWWS-66" target="twCRmPSffdXshnpnkWWS-95">
          <mxGeometry relative="1" as="geometry">
            <Array as="points">
              <mxPoint x="-1079" y="1224" />
            </Array>
          </mxGeometry>
        </mxCell>
        <mxCell id="cwZwF8RBg2SM_kWd7lBv-19" value="Get HLS Segments" style="edgeLabel;html=1;align=center;verticalAlign=middle;resizable=0;points=[];" vertex="1" connectable="0" parent="cwZwF8RBg2SM_kWd7lBv-18">
          <mxGeometry x="-0.2227" y="-1" relative="1" as="geometry">
            <mxPoint x="18" y="-13" as="offset" />
          </mxGeometry>
        </mxCell>
        <mxCell id="cwZwF8RBg2SM_kWd7lBv-22" value="http requests" style="edgeLabel;html=1;align=center;verticalAlign=middle;resizable=0;points=[];" vertex="1" connectable="0" parent="1">
          <mxGeometry x="-600.0014771970863" y="1204.0041958227862" as="geometry" />
        </mxCell>
        <mxCell id="cwZwF8RBg2SM_kWd7lBv-23" value="http requests" style="edgeLabel;html=1;align=center;verticalAlign=middle;resizable=0;points=[];" vertex="1" connectable="0" parent="1">
          <mxGeometry x="-600.0014771970863" y="1294.0041958227862" as="geometry" />
        </mxCell>
      </root>
    </mxGraphModel>
  </diagram>
</mxfile>
